<svg width="24" height="24" viewBox="0 0 24 24" fill="none" xmlns="http://www.w3.org/2000/svg">
<path d="M13.2248 4.69337C13.2248 5.07499 13.0855 5.44099 12.8375 5.71083C12.5895 5.98068 12.2532 6.13228 11.9025 6.13228C11.5518 6.13228 11.2155 5.98068 10.9675 5.71083C10.7195 5.44099 10.5802 5.07499 10.5802 4.69337C10.5802 4.31175 10.7195 3.94576 10.9675 3.67591C11.2155 3.40606 11.5518 3.25446 11.9025 3.25446C12.2532 3.25446 12.5895 3.40606 12.8375 3.67591C13.0855 3.94576 13.2248 4.31175 13.2248 4.69337ZM14.0966 8.29064C15.1669 7.51723 15.8693 6.19523 15.8693 4.69337C15.8693 2.31018 14.0925 0.376648 11.9025 0.376648C9.71249 0.376648 7.93569 2.31018 7.93569 4.69337C7.93569 6.19523 8.63814 7.51723 9.70835 8.29064H9.25796C8.52658 8.29064 7.93569 8.93365 7.93569 9.72955C7.93569 10.5254 8.52658 11.1685 9.25796 11.1685H10.5802V20.5214H8.59682C6.40681 20.5214 4.63001 18.5878 4.63001 16.2046V15.9303L4.91926 16.2451C5.30768 16.6678 5.93575 16.6678 6.32004 16.2451C6.70432 15.8224 6.70846 15.1389 6.32004 14.7208L4.0102 12.2027C3.62178 11.78 2.9937 11.78 2.60942 12.2027L0.291313 14.7208C-0.0971042 15.1434 -0.0971042 15.8269 0.291313 16.2451C0.679729 16.6633 1.30781 16.6678 1.69209 16.2451L1.98134 15.9303V16.2046C1.98134 20.1796 4.93992 23.3992 8.59269 23.3992H11.8984H15.204C18.8568 23.3992 21.8154 20.1796 21.8154 16.2046V15.9303L22.1046 16.2451C22.4931 16.6678 23.1211 16.6678 23.5054 16.2451C23.8897 15.8224 23.8938 15.1389 23.5054 14.7208L21.1914 12.2027C20.803 11.78 20.1749 11.78 19.7907 12.2027L17.4767 14.7208C17.0883 15.1434 17.0883 15.8269 17.4767 16.2451C17.8651 16.6633 18.4932 16.6678 18.8775 16.2451L19.1667 15.9303V16.2046C19.1667 18.5878 17.3899 20.5214 15.1999 20.5214H13.2248V11.1685H14.547C15.2784 11.1685 15.8693 10.5254 15.8693 9.72955C15.8693 8.93365 15.2784 8.29064 14.547 8.29064H14.0966Z" fill="#1C3E4A"/>
</svg>
