<svg width="23" height="21" viewBox="0 0 23 21" fill="none" xmlns="http://www.w3.org/2000/svg">
<path d="M8.12798 1.44878C8.12798 0.728652 8.66262 0.146851 9.32438 0.146851H14.11C14.7717 0.146851 15.3064 0.728652 15.3064 1.44878V2.75072H17.101C18.0917 2.75072 18.8956 3.62545 18.8956 4.70361V9.91134L20.5556 10.5135C21.4192 10.8268 21.6585 12.0392 20.9855 12.7064L17.2094 16.4739C16.6037 16.8563 15.912 17.0882 15.3064 17.0882C14.5736 17.0882 13.781 16.775 13.093 16.2623C12.2668 15.6317 11.1638 15.6317 10.3376 16.2623C9.69825 16.7424 8.91685 17.0882 8.12424 17.0882C7.51856 17.0882 6.8269 16.8563 6.22122 16.4739L2.44509 12.7064C1.77212 12.0351 2.0114 10.8268 2.87505 10.5135L4.53879 9.91134V4.70361C4.53879 3.62545 5.34262 2.75072 6.33338 2.75072H8.12798V1.44878ZM6.93158 9.04474L10.9619 7.58414C11.4517 7.40512 11.9826 7.40512 12.4761 7.58414L16.5028 9.04474V5.35458H6.93158V9.04474ZM12.4088 17.312C13.2501 17.9426 14.2782 18.3739 15.3064 18.3739C16.3121 18.3739 17.3776 17.9345 18.2002 17.312C18.6451 16.9662 19.2507 16.9947 19.6657 17.3812C20.2041 17.8653 20.8808 18.2356 21.5575 18.4065C22.2006 18.5692 22.6006 19.269 22.4511 19.9688C22.3015 20.6686 21.6585 21.1039 21.0154 20.9412C20.0994 20.7092 19.3367 20.2698 18.8395 19.924C17.7552 20.5587 16.5402 20.9778 15.3064 20.9778C14.1137 20.9778 13.0407 20.575 12.3004 20.2088C12.0836 20.099 11.8854 19.9932 11.7172 19.8955C11.5489 19.9932 11.3545 20.103 11.1339 20.2088C10.3937 20.575 9.32064 20.9778 8.12798 20.9778C6.8942 20.9778 5.6791 20.5587 4.59487 19.9281C4.09388 20.2698 3.33491 20.7133 2.41892 20.9452C1.77586 21.108 1.13279 20.6726 0.983244 19.9728C0.833695 19.273 1.23374 18.5733 1.8768 18.4105C2.55352 18.2396 3.23023 17.8694 3.76861 17.3852C4.18361 17.0028 4.78928 16.9743 5.23419 17.3161C6.06046 17.9345 7.12226 18.3739 8.12798 18.3739C9.15613 18.3739 10.1843 17.9426 11.0255 17.312C11.4405 16.9906 11.9938 16.9906 12.4088 17.312Z" fill="#1C3E4A"/>
</svg>
