<svg width="23" height="19" viewBox="0 0 23 19" fill="none" xmlns="http://www.w3.org/2000/svg">
<path d="M3.34419 0.325562C2.02469 0.325562 0.951904 1.49298 0.951904 2.92887V15.9454C0.951904 17.3813 2.02469 18.5487 3.34419 18.5487H20.0902C21.4096 18.5487 22.4824 17.3813 22.4824 15.9454V2.92887C22.4824 1.49298 21.4096 0.325562 20.0902 0.325562H3.34419ZM6.33454 10.7388H8.72682C10.379 10.7388 11.7172 12.195 11.7172 13.9929C11.7172 14.3509 11.448 14.6437 11.1191 14.6437H3.94226C3.61332 14.6437 3.34419 14.3509 3.34419 13.9929C3.34419 12.195 4.68237 10.7388 6.33454 10.7388ZM5.1384 6.83383C5.1384 6.14339 5.39044 5.48123 5.83908 4.99301C6.28772 4.5048 6.89621 4.23052 7.53068 4.23052C8.16515 4.23052 8.77364 4.5048 9.22228 4.99301C9.67092 5.48123 9.92296 6.14339 9.92296 6.83383C9.92296 7.52427 9.67092 8.18643 9.22228 8.67464C8.77364 9.16286 8.16515 9.43713 7.53068 9.43713C6.89621 9.43713 6.28772 9.16286 5.83908 8.67464C5.39044 8.18643 5.1384 7.52427 5.1384 6.83383ZM14.7075 5.53217H19.4921C19.821 5.53217 20.0902 5.82505 20.0902 6.183C20.0902 6.54095 19.821 6.83383 19.4921 6.83383H14.7075C14.3786 6.83383 14.1095 6.54095 14.1095 6.183C14.1095 5.82505 14.3786 5.53217 14.7075 5.53217ZM14.7075 8.13548H19.4921C19.821 8.13548 20.0902 8.42835 20.0902 8.78631C20.0902 9.14426 19.821 9.43713 19.4921 9.43713H14.7075C14.3786 9.43713 14.1095 9.14426 14.1095 8.78631C14.1095 8.42835 14.3786 8.13548 14.7075 8.13548ZM14.7075 10.7388H19.4921C19.821 10.7388 20.0902 11.0317 20.0902 11.3896C20.0902 11.7476 19.821 12.0404 19.4921 12.0404H14.7075C14.3786 12.0404 14.1095 11.7476 14.1095 11.3896C14.1095 11.0317 14.3786 10.7388 14.7075 10.7388Z" fill="#1C3E4A"/>
</svg>
