<svg width="45" height="34" viewBox="0 0 45 34" fill="none" xmlns="http://www.w3.org/2000/svg">
<path d="M21.0544 0.524958C21.9218 -0.174397 23.0783 -0.174397 23.9456 0.524958C25.7038 1.89711 27.8527 2.83548 30.0016 2.83548C32.1036 2.83548 34.3307 1.8794 36.0498 0.524958C36.9797 -0.227513 38.2456 -0.165545 39.1129 0.675451C40.2382 1.72891 41.6525 2.5345 43.0669 2.90631C44.4109 3.26041 45.2471 4.78305 44.9345 6.3057C44.6219 7.82835 43.2779 8.77557 41.9339 8.42147C40.0194 7.91687 38.4253 6.96079 37.386 6.20832C35.1199 7.58933 32.5803 8.50114 30.0016 8.50114C27.5089 8.50114 25.2662 7.62474 23.719 6.828C23.2658 6.58898 22.8516 6.35882 22.5 6.14635C22.1484 6.35882 21.742 6.59784 21.281 6.828C19.7338 7.62474 17.4911 8.50114 14.9984 8.50114C12.4197 8.50114 9.88011 7.58933 7.614 6.21717C6.5669 6.96079 4.98062 7.92573 3.06615 8.43032C1.72211 8.78443 0.378069 7.8372 0.0655024 6.31455C-0.247065 4.79191 0.589052 3.26926 1.93309 2.91516C3.33964 2.5345 4.76182 1.72891 5.87925 0.675451C6.74662 -0.165545 8.01252 -0.21866 8.94241 0.524958C10.6772 1.8794 12.8964 2.83548 14.9984 2.83548C17.1473 2.83548 19.2962 1.89711 21.0544 0.524958ZM23.9456 26.0204C25.7038 27.3926 27.8527 28.331 30.0016 28.331C32.1036 28.331 34.3307 27.3749 36.0498 26.0204C36.9797 25.268 38.2456 25.3299 39.1129 26.1709C40.2382 27.2244 41.6525 28.03 43.0669 28.4018C44.4109 28.7559 45.2471 30.2785 44.9345 31.8012C44.6219 33.3238 43.2779 34.271 41.9339 33.9169C40.0194 33.4123 38.4253 32.4563 37.386 31.7038C35.1199 33.0848 32.5803 33.9966 30.0016 33.9966C27.5089 33.9966 25.2662 33.1202 23.719 32.3235C23.2658 32.0845 22.8516 31.8543 22.5 31.6418C22.1484 31.8543 21.742 32.0933 21.281 32.3235C19.7338 33.1202 17.4911 33.9966 14.9984 33.9966C12.4197 33.9966 9.88011 33.0848 7.614 31.7126C6.5669 32.4563 4.98062 33.4212 3.06615 33.9258C1.72211 34.2799 0.378069 33.3327 0.0655024 31.81C-0.247065 30.2874 0.589052 28.7647 1.93309 28.4106C3.34746 28.0388 4.76182 27.2332 5.88706 26.1798C6.75444 25.3476 8.02033 25.2857 8.95022 26.0293C10.6772 27.3749 12.8964 28.331 14.9984 28.331C17.1473 28.331 19.2962 27.3926 21.0544 26.0204C21.9218 25.3211 23.0783 25.3211 23.9456 26.0204ZM23.9456 13.2727C25.7038 14.6448 27.8527 15.5832 30.0016 15.5832C32.1036 15.5832 34.3307 14.6271 36.0498 13.2727C36.9797 12.5202 38.2456 12.5822 39.1129 13.4232C40.2382 14.4766 41.6525 15.2822 43.0669 15.654C44.4109 16.0081 45.2471 17.5308 44.9345 19.0534C44.6219 20.5761 43.2779 21.5233 41.9339 21.1692C40.0194 20.6646 38.4253 19.7085 37.386 18.9561C35.1199 20.3371 32.5803 21.2489 30.0016 21.2489C27.5089 21.2489 25.2662 20.3725 23.719 19.5757C23.2658 19.3367 22.8516 19.1066 22.5 18.8941C22.1484 19.1066 21.742 19.3456 21.281 19.5757C19.7338 20.3725 17.4911 21.2489 14.9984 21.2489C12.4197 21.2489 9.88011 20.3371 7.614 18.9649C6.5669 19.7085 4.98062 20.6735 3.06615 21.1781C1.72211 21.5322 0.378069 20.5849 0.0655024 19.0623C-0.247065 17.5396 0.589052 16.017 1.93309 15.6629C3.34746 15.2911 4.76182 14.4855 5.88706 13.432C6.75444 12.591 8.02033 12.5379 8.95022 13.2815C10.6772 14.6271 12.8964 15.5832 14.9984 15.5832C17.1473 15.5832 19.2962 14.6448 21.0544 13.2727C21.9218 12.5733 23.0783 12.5733 23.9456 13.2727Z" fill="#5A9FC7"/>
</svg>
