<svg width="18" height="26" viewBox="0 0 18 26" fill="none" xmlns="http://www.w3.org/2000/svg">
<path d="M5.6901 1.97489C5.6901 1.34389 5.2236 0.836243 4.64375 0.836243C4.0639 0.836243 3.5974 1.34389 3.5974 1.97489V5.39084H2.89983C1.74448 5.39084 0.807129 6.41088 0.807129 7.66814V15.0741C0.807129 15.6766 1.02948 16.2555 1.42186 16.6824L1.59189 16.8675C1.98427 17.2945 2.20662 17.8733 2.20662 18.4758V22.8501C2.20662 24.1074 3.14398 25.1274 4.29932 25.1274H14.0609C15.2163 25.1274 16.1536 24.1074 16.1536 22.8501V18.4806C16.1536 17.878 16.376 17.2992 16.7683 16.8722L16.9384 16.6872C17.3308 16.2602 17.5531 15.6814 17.5531 15.0789V7.66814C17.5531 6.41088 16.6157 5.39084 15.4604 5.39084H14.7585C14.7585 4.55109 14.135 3.87264 13.3633 3.87264C12.5917 3.87264 11.9682 4.55109 11.9682 5.39084H10.5731C10.5731 4.55109 9.94962 3.87264 9.17794 3.87264C8.40625 3.87264 7.7828 4.55109 7.7828 5.39084H5.6901V1.97489ZM5.6901 8.42724H12.6658C13.0494 8.42724 13.3633 8.76883 13.3633 9.18634C13.3633 9.60384 13.0494 9.94544 12.6658 9.94544H5.6901C5.30644 9.94544 4.99253 9.60384 4.99253 9.18634C4.99253 8.76883 5.30644 8.42724 5.6901 8.42724ZM5.6901 11.4636H12.6658C13.0494 11.4636 13.3633 11.8052 13.3633 12.2227C13.3633 12.6402 13.0494 12.9818 12.6658 12.9818H5.6901C5.30644 12.9818 4.99253 12.6402 4.99253 12.2227C4.99253 11.8052 5.30644 11.4636 5.6901 11.4636ZM5.6901 14.5H12.6658C13.0494 14.5 13.3633 14.8416 13.3633 15.2591C13.3633 15.6766 13.0494 16.0182 12.6658 16.0182H5.6901C5.30644 16.0182 4.99253 15.6766 4.99253 15.2591C4.99253 14.8416 5.30644 14.5 5.6901 14.5Z" fill="#1C3E4A"/>
</svg>
