<svg width="24" height="21" viewBox="0 0 24 21" fill="none" xmlns="http://www.w3.org/2000/svg">
<path d="M2.64391 0.22345C1.18563 0.22345 0 1.51366 0 3.10058V17.4862C0 19.0731 1.18563 20.3634 2.64391 20.3634H3.96586V0.22345H2.64391ZM5.28782 0.22345V20.3634H18.5074V0.22345H5.28782ZM21.1513 20.3634C22.6096 20.3634 23.7952 19.0731 23.7952 17.4862V3.10058C23.7952 1.51366 22.6096 0.22345 21.1513 0.22345H19.8293V20.3634H21.1513ZM10.5756 6.69699C10.5756 6.30138 10.8731 5.97771 11.2366 5.97771H12.5586C12.9221 5.97771 13.2195 6.30138 13.2195 6.69699V8.85484H15.2025C15.566 8.85484 15.8635 9.17851 15.8635 9.57412V11.0127C15.8635 11.4083 15.566 11.732 15.2025 11.732H13.2195V13.8898C13.2195 14.2854 12.9221 14.6091 12.5586 14.6091H11.2366C10.8731 14.6091 10.5756 14.2854 10.5756 13.8898V11.732H8.5927C8.22917 11.732 7.93173 11.4083 7.93173 11.0127V9.57412C7.93173 9.17851 8.22917 8.85484 8.5927 8.85484H10.5756V6.69699Z" fill="#1C3E4A"/>
</svg>
