<svg width="45" height="40" viewBox="0 0 45 40" fill="none" xmlns="http://www.w3.org/2000/svg">
<path d="M25.0099 7.50179C25.0099 8.16499 24.7464 8.80103 24.2775 9.26998C23.8085 9.73893 23.1725 10.0024 22.5093 10.0024C21.8461 10.0024 21.21 9.73893 20.7411 9.26998C20.2721 8.80103 20.0087 8.16499 20.0087 7.50179C20.0087 6.83859 20.2721 6.20255 20.7411 5.7336C21.21 5.26465 21.8461 5.00119 22.5093 5.00119C23.1725 5.00119 23.8085 5.26465 24.2775 5.7336C24.7464 6.20255 25.0099 6.83859 25.0099 7.50179ZM26.6587 13.7533C28.6826 12.4092 30.0111 10.1118 30.0111 7.50179C30.0111 3.36018 26.6509 0 22.5093 0C18.3677 0 15.0075 3.36018 15.0075 7.50179C15.0075 10.1118 16.3359 12.4092 18.3598 13.7533H17.5081C16.1249 13.7533 15.0075 14.8707 15.0075 16.2539C15.0075 17.637 16.1249 18.7545 17.5081 18.7545H20.0087V35.0084H16.2578C12.1162 35.0084 8.756 31.6482 8.756 27.5066V27.0299L9.303 27.5769C10.0376 28.3114 11.2253 28.3114 11.9521 27.5769C12.6788 26.8423 12.6866 25.6546 11.9521 24.9278L7.58384 20.5518C6.84929 19.8172 5.66151 19.8172 4.93477 20.5518L0.550913 24.9278C-0.183638 25.6624 -0.183638 26.8502 0.550913 27.5769C1.28546 28.3036 2.47325 28.3114 3.19998 27.5769L3.74699 27.0299V27.5066C3.74699 34.4145 9.34207 40.0095 16.25 40.0095H22.5015H28.753C35.6609 40.0095 41.2559 34.4145 41.2559 27.5066V27.0299L41.8029 27.5769C42.5375 28.3114 43.7253 28.3114 44.452 27.5769C45.1787 26.8423 45.1866 25.6546 44.452 24.9278L40.076 20.5518C39.3414 19.8172 38.1536 19.8172 37.4269 20.5518L33.0509 24.9278C32.3163 25.6624 32.3163 26.8502 33.0509 27.5769C33.7854 28.3036 34.9732 28.3114 35.6999 27.5769L36.2469 27.0299V27.5066C36.2469 31.6482 32.8868 35.0084 28.7451 35.0084H25.0099V18.7545H27.5105C28.8936 18.7545 30.0111 17.637 30.0111 16.2539C30.0111 14.8707 28.8936 13.7533 27.5105 13.7533H26.6587Z" fill="white"/>
</svg>
