<svg width="30" height="30" viewBox="0 0 30 30" fill="none" xmlns="http://www.w3.org/2000/svg">
<path d="M14.93 4.08333e-05C10.9639 0.0185495 7.16654 1.60707 4.36862 4.41811C1.57069 7.22914 -4.31862e-05 11.0339 8.90543e-10 15C8.9055e-10 18.9783 1.58035 22.7936 4.39339 25.6066C7.20643 28.4196 11.0217 30 15 30C18.9782 30 22.7935 28.4196 25.6066 25.6066C28.4196 22.7936 30 18.9783 30 15C30 11.0218 28.4196 7.20648 25.6066 4.39343C22.7935 1.58039 18.9782 4.08333e-05 15 4.08333e-05C14.9766 -1.36111e-05 14.9533 -1.36111e-05 14.93 4.08333e-05ZM21.1325 9.03003C21.2575 9.02753 21.5337 9.05878 21.7137 9.20503C21.8333 9.3089 21.9096 9.45387 21.9275 9.61128C21.9475 9.72753 21.9725 9.99378 21.9525 10.2013C21.7275 12.5738 20.75 18.3288 20.2525 20.985C20.0425 22.11 19.6287 22.4863 19.2275 22.5225C18.3575 22.6038 17.6962 21.9475 16.8525 21.395C15.5325 20.5288 14.7862 19.99 13.505 19.145C12.0237 18.17 12.9837 17.6325 13.8275 16.7575C14.0487 16.5275 17.8862 13.0363 17.9612 12.72C17.97 12.68 17.9787 12.5325 17.8912 12.455C17.8037 12.3775 17.6737 12.4038 17.58 12.425C17.4475 12.455 15.3387 13.85 11.2537 16.6063C10.6537 17.0188 10.1125 17.2188 9.62624 17.2063C9.09124 17.1963 8.06124 16.905 7.29499 16.6563C6.35499 16.35 5.60874 16.1888 5.67374 15.67C5.70749 15.4 6.07999 15.1238 6.78999 14.8413C11.1625 12.9363 14.0775 11.68 15.5375 11.0738C19.7025 9.34128 20.5687 9.04003 21.1325 9.03003Z" fill="white"/>
</svg>
